<?xml version="1.0" standalone="no"?>
<!DOCTYPE svg PUBLIC "-//W3C//DTD SVG 20010904//EN"
 "http://www.w3.org/TR/2001/REC-SVG-20010904/DTD/svg10.dtd">
<svg version="1.0" xmlns="http://www.w3.org/2000/svg"
 width="906.000000pt" height="299.000000pt" viewBox="0 0 906.000000 299.000000"
 preserveAspectRatio="xMidYMid meet">

<g transform="translate(0.000000,299.000000) scale(0.100000,-0.100000)"
fill="#FFFFFF" stroke="none">
<path d="M6530 2983 c-148 -25 -223 -109 -236 -265 l-7 -78 -68 0 -69 0 0 -55
0 -55 70 0 70 0 0 -395 0 -395 55 0 55 0 0 395 0 395 110 0 110 0 0 55 0 55
-111 0 -111 0 4 68 c6 108 54 158 164 169 l54 6 0 53 0 54 -32 -1 c-18 -1 -44
-4 -58 -6z"/>
<path d="M10 2871 c0 -11 35 -52 83 -98 145 -136 331 -384 433 -578 81 -153
154 -408 175 -606 32 -308 -70 -729 -248 -1021 -59 -96 -230 -305 -350 -426
-65 -67 -100 -109 -96 -118 3 -10 13 -12 27 -8 25 7 213 141 372 263 61 47
218 163 350 258 131 95 352 254 490 355 139 101 307 221 375 268 211 144 271
220 254 321 -14 84 -75 142 -340 324 -97 67 -631 454 -1153 835 -327 239 -342
250 -358 250 -8 0 -14 -9 -14 -19z"/>
<path d="M2693 2646 c-167 -42 -299 -172 -333 -328 -17 -77 -8 -237 18 -310
41 -115 130 -206 244 -250 75 -29 231 -36 318 -14 144 37 213 92 283 223 26
50 47 93 47 97 0 3 -27 6 -59 6 l-59 0 -17 -45 c-10 -24 -38 -65 -63 -90 -209
-212 -560 -99 -622 200 -29 142 28 270 158 354 186 119 455 46 528 -144 l17
-45 58 0 58 0 -10 32 c-42 148 -161 264 -314 304 -76 21 -193 25 -252 10z"/>
<path d="M3670 2650 c-197 -42 -360 -249 -360 -459 0 -135 46 -246 139 -334
110 -105 214 -143 361 -134 104 6 178 33 260 93 l60 44 0 -60 0 -60 60 0 60 0
0 450 0 450 -60 0 -60 0 0 -61 0 -60 -65 46 c-35 26 -90 56 -122 67 -66 23
-203 32 -273 18z m211 -116 c198 -58 301 -252 240 -453 -41 -136 -150 -227
-302 -253 -166 -29 -322 76 -380 254 -26 83 -23 189 9 261 23 53 89 127 139
158 76 47 198 61 294 33z"/>
<path d="M4719 2650 c-57 -10 -129 -41 -148 -63 -21 -26 -31 -20 -31 18 l0 35
-60 0 -60 0 0 -450 0 -450 58 0 57 0 0 287 c0 249 2 296 18 346 32 104 132
177 244 177 l33 0 0 55 0 55 -32 -1 c-18 -1 -54 -5 -79 -9z"/>
<path d="M5170 2644 c-38 -8 -83 -26 -108 -44 -23 -16 -45 -30 -47 -30 -3 0
-5 16 -5 35 0 35 0 35 -44 35 -83 0 -76 41 -76 -456 l0 -444 58 0 58 0 0 273
c-1 301 6 356 54 429 37 56 110 97 185 105 l55 6 0 53 0 54 -32 -1 c-18 0 -62
-7 -98 -15z"/>
<path d="M5573 2646 c-203 -50 -353 -238 -353 -445 0 -80 19 -154 60 -238 134
-273 524 -328 746 -106 49 48 124 176 111 189 -3 3 -27 2 -53 -2 -50 -7 -57
-13 -133 -104 -66 -79 -129 -105 -252 -105 -90 0 -99 2 -171 37 -110 55 -161
121 -192 251 l-6 27 415 0 415 0 0 28 c0 61 -23 150 -57 222 -96 200 -310 299
-530 246z m225 -115 c103 -32 171 -88 213 -176 50 -104 79 -95 -321 -95 -283
0 -350 3 -350 13 0 35 36 111 72 152 94 107 248 149 386 106z"/>
<path d="M6930 2641 c-131 -33 -233 -118 -296 -246 -33 -67 -38 -85 -42 -174
-6 -122 17 -207 80 -301 159 -238 518 -267 726 -59 143 142 174 379 75 562
-56 101 -192 191 -338 222 -87 18 -123 18 -205 -4z m238 -109 c123 -39 206
-126 238 -251 27 -107 5 -215 -62 -313 -54 -78 -198 -148 -305 -148 -117 0
-241 86 -301 208 -31 62 -33 74 -33 167 0 81 4 109 22 147 25 54 90 128 140
159 79 49 202 61 301 31z"/>
<path d="M8949 2650 c-57 -10 -129 -41 -148 -63 -21 -26 -31 -20 -31 18 l0 35
-60 0 -60 0 0 -450 0 -450 59 0 59 0 -5 228 c-8 343 15 461 104 529 37 28 111
53 160 53 l33 0 0 55 0 55 -32 -1 c-18 -1 -54 -5 -79 -9z"/>
<path d="M7650 2393 c0 -137 5 -278 10 -316 35 -242 161 -351 405 -351 115 -1
176 16 255 69 l50 34 0 -45 0 -44 55 0 55 0 0 450 0 450 -55 0 -56 0 7 -202
c11 -334 -14 -459 -104 -538 -85 -75 -256 -104 -350 -59 -55 27 -117 104 -137
172 -22 74 -36 307 -28 480 l6 147 -56 0 -57 0 0 -247z"/>
<path d="M7700 1350 l0 -150 -55 0 -55 0 0 -95 0 -95 55 0 55 0 0 -355 0 -355
110 0 110 0 0 355 0 355 65 0 65 0 0 95 0 95 -65 0 -65 0 0 150 0 150 -110 0
-110 0 0 -150z"/>
<path d="M2790 1216 c-61 -17 -104 -41 -151 -83 l-39 -35 0 51 0 51 -100 0
-100 0 0 -600 0 -600 110 0 110 0 0 190 0 190 62 -41 c128 -82 260 -91 393
-25 195 96 304 316 261 525 -30 144 -115 275 -220 336 -86 51 -227 68 -326 41z
m175 -205 c60 -27 103 -68 133 -125 23 -44 27 -63 27 -136 0 -97 -18 -143 -82
-206 -75 -75 -196 -100 -278 -57 -54 28 -109 85 -137 142 -32 65 -32 188 0
248 28 53 82 106 135 132 55 26 147 27 202 2z"/>
<path d="M3785 1215 c-22 -8 -55 -30 -73 -50 -18 -19 -34 -35 -37 -35 -3 0 -5
16 -5 35 l0 35 -100 0 -100 0 0 -450 0 -450 108 0 108 0 0 277 c-1 243 1 284
17 324 23 61 61 94 130 114 l57 16 0 100 0 99 -32 0 c-18 -1 -51 -7 -73 -15z"/>
<path d="M4274 1211 c-157 -45 -282 -173 -329 -335 -13 -45 -16 -83 -13 -153
5 -85 9 -102 47 -177 149 -301 532 -367 767 -132 184 185 188 478 8 667 -118
123 -316 177 -480 130z m244 -207 c56 -28 90 -63 125 -128 17 -33 22 -58 22
-126 0 -73 -4 -92 -27 -136 -50 -95 -131 -146 -233 -147 -96 -2 -187 60 -237
162 -31 64 -32 188 -1 246 72 135 226 192 351 129z"/>
<path d="M5390 1215 c-66 -19 -132 -56 -158 -90 -11 -14 -23 -25 -26 -25 -3 0
-6 23 -6 50 l0 50 -100 0 -100 0 0 -600 0 -600 110 0 110 0 0 190 0 190 62
-41 c84 -54 154 -73 243 -66 93 7 168 37 240 94 121 98 179 223 180 383 0 75
-5 110 -24 164 -47 136 -144 242 -261 287 -73 28 -197 34 -270 14z m185 -209
c93 -43 146 -123 153 -232 8 -127 -41 -220 -149 -279 -169 -93 -371 45 -373
255 -1 84 22 145 77 197 89 86 191 107 292 59z"/>
<path d="M6408 1215 c-153 -42 -291 -170 -334 -309 -88 -288 85 -579 373 -628
92 -15 193 -1 277 41 71 35 115 77 186 181 l51 75 -112 3 -112 3 -33 -40 c-73
-84 -248 -97 -334 -24 -33 27 -90 105 -90 122 0 8 108 11 350 11 l350 0 0 93
c0 156 -40 266 -130 357 -112 111 -289 157 -442 115z m220 -201 c20 -8 50 -27
65 -42 28 -26 77 -111 77 -132 0 -7 -85 -10 -250 -10 -137 0 -250 2 -250 5 0
2 5 17 12 32 48 111 125 163 240 163 39 0 85 -7 106 -16z"/>
<path d="M7406 1215 c-21 -7 -56 -31 -77 -51 l-39 -38 0 37 0 37 -100 0 -100
0 0 -450 0 -450 104 0 105 0 3 293 c3 276 4 294 24 332 12 22 30 47 40 56 23
19 78 39 110 39 24 0 24 1 24 105 l0 105 -27 0 c-16 -1 -45 -7 -67 -15z"/>
<path d="M8114 1162 c7 -20 34 -84 59 -142 25 -58 68 -166 96 -241 27 -74 68
-173 89 -220 48 -104 66 -157 64 -187 -1 -12 -18 -55 -38 -95 -20 -39 -48
-101 -61 -135 -13 -35 -32 -81 -43 -103 l-20 -39 119 0 119 0 7 28 c3 15 29
77 57 137 80 176 323 743 352 825 15 41 43 105 62 143 l34 67 -123 0 -124 0
-17 -62 c-10 -35 -45 -128 -78 -208 -34 -80 -71 -175 -84 -212 -12 -38 -26
-73 -30 -79 -10 -17 -20 4 -50 101 -14 47 -50 146 -80 222 -30 75 -59 159 -66
187 l-11 51 -123 0 -123 0 13 -38z"/>
</g>
</svg>
